<mxfile host="app.diagrams.net" modified="2021-07-04T07:48:27.728Z" agent="5.0 (Windows NT 10.0; Win64; x64) AppleWebKit/537.36 (KHTML, like Gecko) Chrome/91.0.4472.124 Safari/537.36" etag="6NKA-1LZVyRoYKN8-u1i" version="14.8.2" type="github">
  <diagram id="C5RBs43oDa-KdzZeNtuy" name="Page-1">
    <mxGraphModel dx="819" dy="784" grid="1" gridSize="10" guides="1" tooltips="1" connect="1" arrows="1" fold="1" page="1" pageScale="1" pageWidth="827" pageHeight="1169" math="0" shadow="0">
      <root>
        <mxCell id="WIyWlLk6GJQsqaUBKTNV-0" />
        <mxCell id="WIyWlLk6GJQsqaUBKTNV-1" parent="WIyWlLk6GJQsqaUBKTNV-0" />
        <mxCell id="zkfFHV4jXpPFQw0GAbJ--12" value="" style="endArrow=block;endSize=10;endFill=0;shadow=0;strokeWidth=1;rounded=0;edgeStyle=elbowEdgeStyle;elbow=vertical;" parent="WIyWlLk6GJQsqaUBKTNV-1" edge="1">
          <mxGeometry width="160" relative="1" as="geometry">
            <mxPoint x="470" y="152" as="sourcePoint" />
            <mxPoint x="570" y="50" as="targetPoint" />
          </mxGeometry>
        </mxCell>
        <mxCell id="zkfFHV4jXpPFQw0GAbJ--16" value="" style="endArrow=block;endSize=10;endFill=0;shadow=0;strokeWidth=1;rounded=0;edgeStyle=elbowEdgeStyle;elbow=vertical;" parent="WIyWlLk6GJQsqaUBKTNV-1" edge="1">
          <mxGeometry width="160" relative="1" as="geometry">
            <mxPoint x="680" y="152" as="sourcePoint" />
            <mxPoint x="570" y="50" as="targetPoint" />
          </mxGeometry>
        </mxCell>
        <mxCell id="zkfFHV4jXpPFQw0GAbJ--26" value="" style="endArrow=open;shadow=0;strokeWidth=1;rounded=0;endFill=1;edgeStyle=elbowEdgeStyle;elbow=vertical;" parent="WIyWlLk6GJQsqaUBKTNV-1" edge="1">
          <mxGeometry x="0.5" y="41" relative="1" as="geometry">
            <mxPoint x="390" y="69" as="sourcePoint" />
            <mxPoint x="518" y="69" as="targetPoint" />
            <mxPoint x="-40" y="32" as="offset" />
          </mxGeometry>
        </mxCell>
        <mxCell id="zkfFHV4jXpPFQw0GAbJ--27" value="0..1" style="resizable=0;align=left;verticalAlign=bottom;labelBackgroundColor=none;fontSize=12;" parent="zkfFHV4jXpPFQw0GAbJ--26" connectable="0" vertex="1">
          <mxGeometry x="-1" relative="1" as="geometry">
            <mxPoint y="4" as="offset" />
          </mxGeometry>
        </mxCell>
        <mxCell id="zkfFHV4jXpPFQw0GAbJ--28" value="1" style="resizable=0;align=right;verticalAlign=bottom;labelBackgroundColor=none;fontSize=12;" parent="zkfFHV4jXpPFQw0GAbJ--26" connectable="0" vertex="1">
          <mxGeometry x="1" relative="1" as="geometry">
            <mxPoint x="-7" y="4" as="offset" />
          </mxGeometry>
        </mxCell>
        <mxCell id="zkfFHV4jXpPFQw0GAbJ--29" value="lives at" style="text;html=1;resizable=0;points=[];;align=center;verticalAlign=middle;labelBackgroundColor=none;rounded=0;shadow=0;strokeWidth=1;fontSize=12;" parent="zkfFHV4jXpPFQw0GAbJ--26" vertex="1" connectable="0">
          <mxGeometry x="0.5" y="49" relative="1" as="geometry">
            <mxPoint x="-38" y="40" as="offset" />
          </mxGeometry>
        </mxCell>
        <mxCell id="l_XPIXDKewQsz5GAqpIU-1" value="uesr" style="shape=table;startSize=30;container=1;collapsible=0;childLayout=tableLayout;fixedRows=1;rowLines=0;fontStyle=1;align=center;" vertex="1" parent="WIyWlLk6GJQsqaUBKTNV-1">
          <mxGeometry x="40" y="200" width="180" height="200" as="geometry" />
        </mxCell>
        <mxCell id="l_XPIXDKewQsz5GAqpIU-2" value="" style="shape=partialRectangle;html=1;whiteSpace=wrap;collapsible=0;dropTarget=0;pointerEvents=0;fillColor=none;top=0;left=0;bottom=1;right=0;points=[[0,0.5],[1,0.5]];portConstraint=eastwest;" vertex="1" parent="l_XPIXDKewQsz5GAqpIU-1">
          <mxGeometry y="30" width="180" height="30" as="geometry" />
        </mxCell>
        <mxCell id="l_XPIXDKewQsz5GAqpIU-3" value="PK" style="shape=partialRectangle;html=1;whiteSpace=wrap;connectable=0;fillColor=none;top=0;left=0;bottom=0;right=0;overflow=hidden;" vertex="1" parent="l_XPIXDKewQsz5GAqpIU-2">
          <mxGeometry width="40" height="30" as="geometry" />
        </mxCell>
        <mxCell id="l_XPIXDKewQsz5GAqpIU-4" value="&lt;span style=&quot;text-align: center&quot;&gt;_id&lt;/span&gt;" style="shape=partialRectangle;html=1;whiteSpace=wrap;connectable=0;fillColor=none;top=0;left=0;bottom=0;right=0;align=left;spacingLeft=6;overflow=hidden;" vertex="1" parent="l_XPIXDKewQsz5GAqpIU-2">
          <mxGeometry x="40" width="140" height="30" as="geometry" />
        </mxCell>
        <mxCell id="l_XPIXDKewQsz5GAqpIU-5" value="" style="shape=partialRectangle;html=1;whiteSpace=wrap;collapsible=0;dropTarget=0;pointerEvents=0;fillColor=none;top=0;left=0;bottom=0;right=0;points=[[0,0.5],[1,0.5]];portConstraint=eastwest;" vertex="1" parent="l_XPIXDKewQsz5GAqpIU-1">
          <mxGeometry y="60" width="180" height="30" as="geometry" />
        </mxCell>
        <mxCell id="l_XPIXDKewQsz5GAqpIU-6" value="" style="shape=partialRectangle;html=1;whiteSpace=wrap;connectable=0;fillColor=none;top=0;left=0;bottom=0;right=0;overflow=hidden;" vertex="1" parent="l_XPIXDKewQsz5GAqpIU-5">
          <mxGeometry width="40" height="30" as="geometry" />
        </mxCell>
        <mxCell id="l_XPIXDKewQsz5GAqpIU-7" value="account: String" style="shape=partialRectangle;html=1;whiteSpace=wrap;connectable=0;fillColor=none;top=0;left=0;bottom=0;right=0;align=left;spacingLeft=6;overflow=hidden;" vertex="1" parent="l_XPIXDKewQsz5GAqpIU-5">
          <mxGeometry x="40" width="140" height="30" as="geometry" />
        </mxCell>
        <mxCell id="l_XPIXDKewQsz5GAqpIU-8" value="" style="shape=partialRectangle;html=1;whiteSpace=wrap;collapsible=0;dropTarget=0;pointerEvents=0;fillColor=none;top=0;left=0;bottom=0;right=0;points=[[0,0.5],[1,0.5]];portConstraint=eastwest;" vertex="1" parent="l_XPIXDKewQsz5GAqpIU-1">
          <mxGeometry y="90" width="180" height="30" as="geometry" />
        </mxCell>
        <mxCell id="l_XPIXDKewQsz5GAqpIU-9" value="" style="shape=partialRectangle;html=1;whiteSpace=wrap;connectable=0;fillColor=none;top=0;left=0;bottom=0;right=0;overflow=hidden;" vertex="1" parent="l_XPIXDKewQsz5GAqpIU-8">
          <mxGeometry width="40" height="30" as="geometry" />
        </mxCell>
        <mxCell id="l_XPIXDKewQsz5GAqpIU-10" value="password: String" style="shape=partialRectangle;html=1;whiteSpace=wrap;connectable=0;fillColor=none;top=0;left=0;bottom=0;right=0;align=left;spacingLeft=6;overflow=hidden;" vertex="1" parent="l_XPIXDKewQsz5GAqpIU-8">
          <mxGeometry x="40" width="140" height="30" as="geometry" />
        </mxCell>
        <mxCell id="l_XPIXDKewQsz5GAqpIU-42" style="shape=partialRectangle;html=1;whiteSpace=wrap;collapsible=0;dropTarget=0;pointerEvents=0;fillColor=none;top=0;left=0;bottom=0;right=0;points=[[0,0.5],[1,0.5]];portConstraint=eastwest;" vertex="1" parent="l_XPIXDKewQsz5GAqpIU-1">
          <mxGeometry y="120" width="180" height="30" as="geometry" />
        </mxCell>
        <mxCell id="l_XPIXDKewQsz5GAqpIU-43" style="shape=partialRectangle;html=1;whiteSpace=wrap;connectable=0;fillColor=none;top=0;left=0;bottom=0;right=0;overflow=hidden;" vertex="1" parent="l_XPIXDKewQsz5GAqpIU-42">
          <mxGeometry width="40" height="30" as="geometry" />
        </mxCell>
        <mxCell id="l_XPIXDKewQsz5GAqpIU-44" value="writing:&amp;nbsp;writing[0...*]" style="shape=partialRectangle;html=1;whiteSpace=wrap;connectable=0;fillColor=none;top=0;left=0;bottom=0;right=0;align=left;spacingLeft=6;overflow=hidden;" vertex="1" parent="l_XPIXDKewQsz5GAqpIU-42">
          <mxGeometry x="40" width="140" height="30" as="geometry" />
        </mxCell>
        <mxCell id="l_XPIXDKewQsz5GAqpIU-21" value="news" style="shape=table;startSize=30;container=1;collapsible=0;childLayout=tableLayout;fixedRows=1;rowLines=0;fontStyle=1;align=center;" vertex="1" parent="WIyWlLk6GJQsqaUBKTNV-1">
          <mxGeometry x="310" y="200" width="180" height="150" as="geometry" />
        </mxCell>
        <mxCell id="l_XPIXDKewQsz5GAqpIU-22" value="" style="shape=partialRectangle;html=1;whiteSpace=wrap;collapsible=0;dropTarget=0;pointerEvents=0;fillColor=none;top=0;left=0;bottom=1;right=0;points=[[0,0.5],[1,0.5]];portConstraint=eastwest;" vertex="1" parent="l_XPIXDKewQsz5GAqpIU-21">
          <mxGeometry y="30" width="180" height="30" as="geometry" />
        </mxCell>
        <mxCell id="l_XPIXDKewQsz5GAqpIU-23" value="1" style="shape=partialRectangle;html=1;whiteSpace=wrap;connectable=0;fillColor=none;top=0;left=0;bottom=0;right=0;overflow=hidden;" vertex="1" parent="l_XPIXDKewQsz5GAqpIU-22">
          <mxGeometry width="40" height="30" as="geometry" />
        </mxCell>
        <mxCell id="l_XPIXDKewQsz5GAqpIU-24" value="Value 1" style="shape=partialRectangle;html=1;whiteSpace=wrap;connectable=0;fillColor=none;top=0;left=0;bottom=0;right=0;align=left;spacingLeft=6;overflow=hidden;" vertex="1" parent="l_XPIXDKewQsz5GAqpIU-22">
          <mxGeometry x="40" width="140" height="30" as="geometry" />
        </mxCell>
        <mxCell id="l_XPIXDKewQsz5GAqpIU-25" value="" style="shape=partialRectangle;html=1;whiteSpace=wrap;collapsible=0;dropTarget=0;pointerEvents=0;fillColor=none;top=0;left=0;bottom=0;right=0;points=[[0,0.5],[1,0.5]];portConstraint=eastwest;" vertex="1" parent="l_XPIXDKewQsz5GAqpIU-21">
          <mxGeometry y="60" width="180" height="30" as="geometry" />
        </mxCell>
        <mxCell id="l_XPIXDKewQsz5GAqpIU-26" value="2" style="shape=partialRectangle;html=1;whiteSpace=wrap;connectable=0;fillColor=none;top=0;left=0;bottom=0;right=0;overflow=hidden;" vertex="1" parent="l_XPIXDKewQsz5GAqpIU-25">
          <mxGeometry width="40" height="30" as="geometry" />
        </mxCell>
        <mxCell id="l_XPIXDKewQsz5GAqpIU-27" value="Value 2" style="shape=partialRectangle;html=1;whiteSpace=wrap;connectable=0;fillColor=none;top=0;left=0;bottom=0;right=0;align=left;spacingLeft=6;overflow=hidden;" vertex="1" parent="l_XPIXDKewQsz5GAqpIU-25">
          <mxGeometry x="40" width="140" height="30" as="geometry" />
        </mxCell>
        <mxCell id="l_XPIXDKewQsz5GAqpIU-28" value="" style="shape=partialRectangle;html=1;whiteSpace=wrap;collapsible=0;dropTarget=0;pointerEvents=0;fillColor=none;top=0;left=0;bottom=0;right=0;points=[[0,0.5],[1,0.5]];portConstraint=eastwest;" vertex="1" parent="l_XPIXDKewQsz5GAqpIU-21">
          <mxGeometry y="90" width="180" height="30" as="geometry" />
        </mxCell>
        <mxCell id="l_XPIXDKewQsz5GAqpIU-29" value="3" style="shape=partialRectangle;html=1;whiteSpace=wrap;connectable=0;fillColor=none;top=0;left=0;bottom=0;right=0;overflow=hidden;" vertex="1" parent="l_XPIXDKewQsz5GAqpIU-28">
          <mxGeometry width="40" height="30" as="geometry" />
        </mxCell>
        <mxCell id="l_XPIXDKewQsz5GAqpIU-30" value="Value 3" style="shape=partialRectangle;html=1;whiteSpace=wrap;connectable=0;fillColor=none;top=0;left=0;bottom=0;right=0;align=left;spacingLeft=6;overflow=hidden;" vertex="1" parent="l_XPIXDKewQsz5GAqpIU-28">
          <mxGeometry x="40" width="140" height="30" as="geometry" />
        </mxCell>
        <mxCell id="l_XPIXDKewQsz5GAqpIU-31" value="writing" style="shape=table;startSize=30;container=1;collapsible=0;childLayout=tableLayout;fixedRows=1;rowLines=0;fontStyle=1;align=center;" vertex="1" parent="WIyWlLk6GJQsqaUBKTNV-1">
          <mxGeometry x="80" y="470" width="180" height="150" as="geometry" />
        </mxCell>
        <mxCell id="l_XPIXDKewQsz5GAqpIU-32" value="" style="shape=partialRectangle;html=1;whiteSpace=wrap;collapsible=0;dropTarget=0;pointerEvents=0;fillColor=none;top=0;left=0;bottom=1;right=0;points=[[0,0.5],[1,0.5]];portConstraint=eastwest;" vertex="1" parent="l_XPIXDKewQsz5GAqpIU-31">
          <mxGeometry y="30" width="180" height="30" as="geometry" />
        </mxCell>
        <mxCell id="l_XPIXDKewQsz5GAqpIU-33" value="PK" style="shape=partialRectangle;html=1;whiteSpace=wrap;connectable=0;fillColor=none;top=0;left=0;bottom=0;right=0;overflow=hidden;" vertex="1" parent="l_XPIXDKewQsz5GAqpIU-32">
          <mxGeometry width="40" height="30" as="geometry" />
        </mxCell>
        <mxCell id="l_XPIXDKewQsz5GAqpIU-34" value="_id" style="shape=partialRectangle;html=1;whiteSpace=wrap;connectable=0;fillColor=none;top=0;left=0;bottom=0;right=0;align=left;spacingLeft=6;overflow=hidden;" vertex="1" parent="l_XPIXDKewQsz5GAqpIU-32">
          <mxGeometry x="40" width="140" height="30" as="geometry" />
        </mxCell>
        <mxCell id="l_XPIXDKewQsz5GAqpIU-35" value="" style="shape=partialRectangle;html=1;whiteSpace=wrap;collapsible=0;dropTarget=0;pointerEvents=0;fillColor=none;top=0;left=0;bottom=0;right=0;points=[[0,0.5],[1,0.5]];portConstraint=eastwest;" vertex="1" parent="l_XPIXDKewQsz5GAqpIU-31">
          <mxGeometry y="60" width="180" height="30" as="geometry" />
        </mxCell>
        <mxCell id="l_XPIXDKewQsz5GAqpIU-36" value="FK" style="shape=partialRectangle;html=1;whiteSpace=wrap;connectable=0;fillColor=none;top=0;left=0;bottom=0;right=0;overflow=hidden;" vertex="1" parent="l_XPIXDKewQsz5GAqpIU-35">
          <mxGeometry width="40" height="30" as="geometry" />
        </mxCell>
        <mxCell id="l_XPIXDKewQsz5GAqpIU-37" value="date: Date" style="shape=partialRectangle;html=1;whiteSpace=wrap;connectable=0;fillColor=none;top=0;left=0;bottom=0;right=0;align=left;spacingLeft=6;overflow=hidden;" vertex="1" parent="l_XPIXDKewQsz5GAqpIU-35">
          <mxGeometry x="40" width="140" height="30" as="geometry" />
        </mxCell>
        <mxCell id="l_XPIXDKewQsz5GAqpIU-38" value="" style="shape=partialRectangle;html=1;whiteSpace=wrap;collapsible=0;dropTarget=0;pointerEvents=0;fillColor=none;top=0;left=0;bottom=0;right=0;points=[[0,0.5],[1,0.5]];portConstraint=eastwest;" vertex="1" parent="l_XPIXDKewQsz5GAqpIU-31">
          <mxGeometry y="90" width="180" height="30" as="geometry" />
        </mxCell>
        <mxCell id="l_XPIXDKewQsz5GAqpIU-39" value="" style="shape=partialRectangle;html=1;whiteSpace=wrap;connectable=0;fillColor=none;top=0;left=0;bottom=0;right=0;overflow=hidden;" vertex="1" parent="l_XPIXDKewQsz5GAqpIU-38">
          <mxGeometry width="40" height="30" as="geometry" />
        </mxCell>
        <mxCell id="l_XPIXDKewQsz5GAqpIU-40" value="item:writingitem [1...*]" style="shape=partialRectangle;html=1;whiteSpace=wrap;connectable=0;fillColor=none;top=0;left=0;bottom=0;right=0;align=left;spacingLeft=6;overflow=hidden;" vertex="1" parent="l_XPIXDKewQsz5GAqpIU-38">
          <mxGeometry x="40" width="140" height="30" as="geometry" />
        </mxCell>
        <mxCell id="l_XPIXDKewQsz5GAqpIU-45" style="edgeStyle=orthogonalEdgeStyle;rounded=0;orthogonalLoop=1;jettySize=auto;html=1;exitX=1;exitY=0.5;exitDx=0;exitDy=0;endArrow=diamond;endFill=1;" edge="1" parent="WIyWlLk6GJQsqaUBKTNV-1" source="l_XPIXDKewQsz5GAqpIU-42">
          <mxGeometry relative="1" as="geometry">
            <mxPoint x="240" y="470" as="targetPoint" />
            <Array as="points">
              <mxPoint x="240" y="335" />
              <mxPoint x="240" y="470" />
            </Array>
          </mxGeometry>
        </mxCell>
        <mxCell id="l_XPIXDKewQsz5GAqpIU-46" value="writingitem" style="shape=table;startSize=30;container=1;collapsible=0;childLayout=tableLayout;fixedRows=1;rowLines=0;fontStyle=1;align=center;" vertex="1" parent="WIyWlLk6GJQsqaUBKTNV-1">
          <mxGeometry x="320" y="470" width="140" height="180" as="geometry" />
        </mxCell>
        <mxCell id="l_XPIXDKewQsz5GAqpIU-47" value="" style="shape=partialRectangle;html=1;whiteSpace=wrap;collapsible=0;dropTarget=0;pointerEvents=0;fillColor=none;top=0;left=0;bottom=1;right=0;points=[[0,0.5],[1,0.5]];portConstraint=eastwest;" vertex="1" parent="l_XPIXDKewQsz5GAqpIU-46">
          <mxGeometry y="30" width="140" height="30" as="geometry" />
        </mxCell>
        <mxCell id="l_XPIXDKewQsz5GAqpIU-48" value="PK" style="shape=partialRectangle;html=1;whiteSpace=wrap;connectable=0;fillColor=none;top=0;left=0;bottom=0;right=0;overflow=hidden;" vertex="1" parent="l_XPIXDKewQsz5GAqpIU-47">
          <mxGeometry width="31" height="30" as="geometry" />
        </mxCell>
        <mxCell id="l_XPIXDKewQsz5GAqpIU-49" value="_id" style="shape=partialRectangle;html=1;whiteSpace=wrap;connectable=0;fillColor=none;top=0;left=0;bottom=0;right=0;align=left;spacingLeft=6;overflow=hidden;" vertex="1" parent="l_XPIXDKewQsz5GAqpIU-47">
          <mxGeometry x="31" width="109" height="30" as="geometry" />
        </mxCell>
        <mxCell id="l_XPIXDKewQsz5GAqpIU-50" value="" style="shape=partialRectangle;html=1;whiteSpace=wrap;collapsible=0;dropTarget=0;pointerEvents=0;fillColor=none;top=0;left=0;bottom=0;right=0;points=[[0,0.5],[1,0.5]];portConstraint=eastwest;" vertex="1" parent="l_XPIXDKewQsz5GAqpIU-46">
          <mxGeometry y="60" width="140" height="30" as="geometry" />
        </mxCell>
        <mxCell id="l_XPIXDKewQsz5GAqpIU-51" value="" style="shape=partialRectangle;html=1;whiteSpace=wrap;connectable=0;fillColor=none;top=0;left=0;bottom=0;right=0;overflow=hidden;" vertex="1" parent="l_XPIXDKewQsz5GAqpIU-50">
          <mxGeometry width="31" height="30" as="geometry" />
        </mxCell>
        <mxCell id="l_XPIXDKewQsz5GAqpIU-52" value="&lt;span&gt;template: String&lt;/span&gt;" style="shape=partialRectangle;html=1;whiteSpace=wrap;connectable=0;fillColor=none;top=0;left=0;bottom=0;right=0;align=left;spacingLeft=6;overflow=hidden;" vertex="1" parent="l_XPIXDKewQsz5GAqpIU-50">
          <mxGeometry x="31" width="109" height="30" as="geometry" />
        </mxCell>
        <mxCell id="l_XPIXDKewQsz5GAqpIU-53" value="" style="shape=partialRectangle;html=1;whiteSpace=wrap;collapsible=0;dropTarget=0;pointerEvents=0;fillColor=none;top=0;left=0;bottom=0;right=0;points=[[0,0.5],[1,0.5]];portConstraint=eastwest;" vertex="1" parent="l_XPIXDKewQsz5GAqpIU-46">
          <mxGeometry y="90" width="140" height="30" as="geometry" />
        </mxCell>
        <mxCell id="l_XPIXDKewQsz5GAqpIU-54" value="" style="shape=partialRectangle;html=1;whiteSpace=wrap;connectable=0;fillColor=none;top=0;left=0;bottom=0;right=0;overflow=hidden;" vertex="1" parent="l_XPIXDKewQsz5GAqpIU-53">
          <mxGeometry width="31" height="30" as="geometry" />
        </mxCell>
        <mxCell id="l_XPIXDKewQsz5GAqpIU-55" value="titie:String" style="shape=partialRectangle;html=1;whiteSpace=wrap;connectable=0;fillColor=none;top=0;left=0;bottom=0;right=0;align=left;spacingLeft=6;overflow=hidden;" vertex="1" parent="l_XPIXDKewQsz5GAqpIU-53">
          <mxGeometry x="31" width="109" height="30" as="geometry" />
        </mxCell>
        <mxCell id="l_XPIXDKewQsz5GAqpIU-60" style="shape=partialRectangle;html=1;whiteSpace=wrap;collapsible=0;dropTarget=0;pointerEvents=0;fillColor=none;top=0;left=0;bottom=0;right=0;points=[[0,0.5],[1,0.5]];portConstraint=eastwest;" vertex="1" parent="l_XPIXDKewQsz5GAqpIU-46">
          <mxGeometry y="120" width="140" height="30" as="geometry" />
        </mxCell>
        <mxCell id="l_XPIXDKewQsz5GAqpIU-61" style="shape=partialRectangle;html=1;whiteSpace=wrap;connectable=0;fillColor=none;top=0;left=0;bottom=0;right=0;overflow=hidden;" vertex="1" parent="l_XPIXDKewQsz5GAqpIU-60">
          <mxGeometry width="31" height="30" as="geometry" />
        </mxCell>
        <mxCell id="l_XPIXDKewQsz5GAqpIU-62" value="&lt;span&gt;content:content&lt;br&gt;&lt;/span&gt;" style="shape=partialRectangle;html=1;whiteSpace=wrap;connectable=0;fillColor=none;top=0;left=0;bottom=0;right=0;align=left;spacingLeft=6;overflow=hidden;" vertex="1" parent="l_XPIXDKewQsz5GAqpIU-60">
          <mxGeometry x="31" width="109" height="30" as="geometry" />
        </mxCell>
        <mxCell id="l_XPIXDKewQsz5GAqpIU-56" style="edgeStyle=orthogonalEdgeStyle;rounded=0;orthogonalLoop=1;jettySize=auto;html=1;entryX=0;entryY=0.067;entryDx=0;entryDy=0;entryPerimeter=0;endArrow=diamond;endFill=1;" edge="1" parent="WIyWlLk6GJQsqaUBKTNV-1" target="l_XPIXDKewQsz5GAqpIU-46">
          <mxGeometry relative="1" as="geometry">
            <mxPoint x="260" y="570" as="sourcePoint" />
            <Array as="points">
              <mxPoint x="290" y="570" />
              <mxPoint x="290" y="482" />
            </Array>
          </mxGeometry>
        </mxCell>
        <mxCell id="l_XPIXDKewQsz5GAqpIU-66" value="content" style="shape=table;startSize=30;container=1;collapsible=0;childLayout=tableLayout;fixedRows=1;rowLines=0;fontStyle=1;align=center;" vertex="1" parent="WIyWlLk6GJQsqaUBKTNV-1">
          <mxGeometry x="100" y="710" width="240" height="380" as="geometry" />
        </mxCell>
        <mxCell id="l_XPIXDKewQsz5GAqpIU-67" value="" style="shape=partialRectangle;html=1;whiteSpace=wrap;collapsible=0;dropTarget=0;pointerEvents=0;fillColor=none;top=0;left=0;bottom=1;right=0;points=[[0,0.5],[1,0.5]];portConstraint=eastwest;" vertex="1" parent="l_XPIXDKewQsz5GAqpIU-66">
          <mxGeometry y="30" width="240" height="30" as="geometry" />
        </mxCell>
        <mxCell id="l_XPIXDKewQsz5GAqpIU-68" value="PK" style="shape=partialRectangle;html=1;whiteSpace=wrap;connectable=0;fillColor=none;top=0;left=0;bottom=0;right=0;overflow=hidden;" vertex="1" parent="l_XPIXDKewQsz5GAqpIU-67">
          <mxGeometry width="48" height="30" as="geometry" />
        </mxCell>
        <mxCell id="l_XPIXDKewQsz5GAqpIU-69" value="_id" style="shape=partialRectangle;html=1;whiteSpace=wrap;connectable=0;fillColor=none;top=0;left=0;bottom=0;right=0;align=left;spacingLeft=6;overflow=hidden;" vertex="1" parent="l_XPIXDKewQsz5GAqpIU-67">
          <mxGeometry x="48" width="192" height="30" as="geometry" />
        </mxCell>
        <mxCell id="l_XPIXDKewQsz5GAqpIU-70" value="" style="shape=partialRectangle;html=1;whiteSpace=wrap;collapsible=0;dropTarget=0;pointerEvents=0;fillColor=none;top=0;left=0;bottom=0;right=0;points=[[0,0.5],[1,0.5]];portConstraint=eastwest;" vertex="1" parent="l_XPIXDKewQsz5GAqpIU-66">
          <mxGeometry y="60" width="240" height="30" as="geometry" />
        </mxCell>
        <mxCell id="l_XPIXDKewQsz5GAqpIU-71" value="" style="shape=partialRectangle;html=1;whiteSpace=wrap;connectable=0;fillColor=none;top=0;left=0;bottom=0;right=0;overflow=hidden;" vertex="1" parent="l_XPIXDKewQsz5GAqpIU-70">
          <mxGeometry width="48" height="30" as="geometry" />
        </mxCell>
        <mxCell id="l_XPIXDKewQsz5GAqpIU-72" value="&lt;div style=&quot;color: rgb(212 , 212 , 212) ; background-color: rgb(30 , 30 , 30) ; font-family: &amp;#34;consolas&amp;#34; , &amp;#34;courier new&amp;#34; , monospace ; font-size: 15px ; line-height: 20px&quot;&gt;text&lt;/div&gt;" style="shape=partialRectangle;html=1;whiteSpace=wrap;connectable=0;fillColor=none;top=0;left=0;bottom=0;right=0;align=left;spacingLeft=6;overflow=hidden;" vertex="1" parent="l_XPIXDKewQsz5GAqpIU-70">
          <mxGeometry x="48" width="192" height="30" as="geometry" />
        </mxCell>
        <mxCell id="l_XPIXDKewQsz5GAqpIU-73" value="" style="shape=partialRectangle;html=1;whiteSpace=wrap;collapsible=0;dropTarget=0;pointerEvents=0;fillColor=none;top=0;left=0;bottom=0;right=0;points=[[0,0.5],[1,0.5]];portConstraint=eastwest;" vertex="1" parent="l_XPIXDKewQsz5GAqpIU-66">
          <mxGeometry y="90" width="240" height="30" as="geometry" />
        </mxCell>
        <mxCell id="l_XPIXDKewQsz5GAqpIU-74" value="" style="shape=partialRectangle;html=1;whiteSpace=wrap;connectable=0;fillColor=none;top=0;left=0;bottom=0;right=0;overflow=hidden;" vertex="1" parent="l_XPIXDKewQsz5GAqpIU-73">
          <mxGeometry width="48" height="30" as="geometry" />
        </mxCell>
        <mxCell id="l_XPIXDKewQsz5GAqpIU-75" value="&lt;div style=&quot;color: rgb(212 , 212 , 212) ; background-color: rgb(30 , 30 , 30) ; font-family: &amp;#34;consolas&amp;#34; , &amp;#34;courier new&amp;#34; , monospace ; font-size: 15px ; line-height: 20px&quot;&gt;datepicker&lt;/div&gt;" style="shape=partialRectangle;html=1;whiteSpace=wrap;connectable=0;fillColor=none;top=0;left=0;bottom=0;right=0;align=left;spacingLeft=6;overflow=hidden;" vertex="1" parent="l_XPIXDKewQsz5GAqpIU-73">
          <mxGeometry x="48" width="192" height="30" as="geometry" />
        </mxCell>
        <mxCell id="l_XPIXDKewQsz5GAqpIU-78" style="shape=partialRectangle;html=1;whiteSpace=wrap;collapsible=0;dropTarget=0;pointerEvents=0;fillColor=none;top=0;left=0;bottom=0;right=0;points=[[0,0.5],[1,0.5]];portConstraint=eastwest;" vertex="1" parent="l_XPIXDKewQsz5GAqpIU-66">
          <mxGeometry y="120" width="240" height="30" as="geometry" />
        </mxCell>
        <mxCell id="l_XPIXDKewQsz5GAqpIU-79" style="shape=partialRectangle;html=1;whiteSpace=wrap;connectable=0;fillColor=none;top=0;left=0;bottom=0;right=0;overflow=hidden;" vertex="1" parent="l_XPIXDKewQsz5GAqpIU-78">
          <mxGeometry width="48" height="30" as="geometry" />
        </mxCell>
        <mxCell id="l_XPIXDKewQsz5GAqpIU-80" value="&lt;font color=&quot;#d4d4d4&quot; face=&quot;consolas, courier new, monospace&quot;&gt;&lt;span style=&quot;font-size: 15px ; background-color: rgb(30 , 30 , 30)&quot;&gt;share&lt;/span&gt;&lt;/font&gt;&lt;span style=&quot;color: rgb(212 , 212 , 212) ; font-family: &amp;#34;consolas&amp;#34; , &amp;#34;courier new&amp;#34; , monospace ; font-size: 15px ; background-color: rgb(30 , 30 , 30)&quot;&gt;:boolean&lt;/span&gt;" style="shape=partialRectangle;html=1;whiteSpace=wrap;connectable=0;fillColor=none;top=0;left=0;bottom=0;right=0;align=left;spacingLeft=6;overflow=hidden;" vertex="1" parent="l_XPIXDKewQsz5GAqpIU-78">
          <mxGeometry x="48" width="192" height="30" as="geometry" />
        </mxCell>
        <mxCell id="l_XPIXDKewQsz5GAqpIU-81" style="shape=partialRectangle;html=1;whiteSpace=wrap;collapsible=0;dropTarget=0;pointerEvents=0;fillColor=none;top=0;left=0;bottom=0;right=0;points=[[0,0.5],[1,0.5]];portConstraint=eastwest;" vertex="1" parent="l_XPIXDKewQsz5GAqpIU-66">
          <mxGeometry y="150" width="240" height="30" as="geometry" />
        </mxCell>
        <mxCell id="l_XPIXDKewQsz5GAqpIU-82" style="shape=partialRectangle;html=1;whiteSpace=wrap;connectable=0;fillColor=none;top=0;left=0;bottom=0;right=0;overflow=hidden;" vertex="1" parent="l_XPIXDKewQsz5GAqpIU-81">
          <mxGeometry width="48" height="30" as="geometry" />
        </mxCell>
        <mxCell id="l_XPIXDKewQsz5GAqpIU-83" value="img" style="shape=partialRectangle;html=1;whiteSpace=wrap;connectable=0;fillColor=none;top=0;left=0;bottom=0;right=0;align=left;spacingLeft=6;overflow=hidden;" vertex="1" parent="l_XPIXDKewQsz5GAqpIU-81">
          <mxGeometry x="48" width="192" height="30" as="geometry" />
        </mxCell>
        <mxCell id="l_XPIXDKewQsz5GAqpIU-84" style="shape=partialRectangle;html=1;whiteSpace=wrap;collapsible=0;dropTarget=0;pointerEvents=0;fillColor=none;top=0;left=0;bottom=0;right=0;points=[[0,0.5],[1,0.5]];portConstraint=eastwest;" vertex="1" parent="l_XPIXDKewQsz5GAqpIU-66">
          <mxGeometry y="180" width="240" height="30" as="geometry" />
        </mxCell>
        <mxCell id="l_XPIXDKewQsz5GAqpIU-85" style="shape=partialRectangle;html=1;whiteSpace=wrap;connectable=0;fillColor=none;top=0;left=0;bottom=0;right=0;overflow=hidden;" vertex="1" parent="l_XPIXDKewQsz5GAqpIU-84">
          <mxGeometry width="48" height="30" as="geometry" />
        </mxCell>
        <mxCell id="l_XPIXDKewQsz5GAqpIU-86" style="shape=partialRectangle;html=1;whiteSpace=wrap;connectable=0;fillColor=none;top=0;left=0;bottom=0;right=0;align=left;spacingLeft=6;overflow=hidden;" vertex="1" parent="l_XPIXDKewQsz5GAqpIU-84">
          <mxGeometry x="48" width="192" height="30" as="geometry" />
        </mxCell>
        <mxCell id="l_XPIXDKewQsz5GAqpIU-87" style="shape=partialRectangle;html=1;whiteSpace=wrap;collapsible=0;dropTarget=0;pointerEvents=0;fillColor=none;top=0;left=0;bottom=0;right=0;points=[[0,0.5],[1,0.5]];portConstraint=eastwest;" vertex="1" parent="l_XPIXDKewQsz5GAqpIU-66">
          <mxGeometry y="210" width="240" height="30" as="geometry" />
        </mxCell>
        <mxCell id="l_XPIXDKewQsz5GAqpIU-88" style="shape=partialRectangle;html=1;whiteSpace=wrap;connectable=0;fillColor=none;top=0;left=0;bottom=0;right=0;overflow=hidden;" vertex="1" parent="l_XPIXDKewQsz5GAqpIU-87">
          <mxGeometry width="48" height="30" as="geometry" />
        </mxCell>
        <mxCell id="l_XPIXDKewQsz5GAqpIU-89" value="&lt;span style=&quot;color: rgb(212 , 212 , 212) ; font-family: &amp;#34;consolas&amp;#34; , &amp;#34;courier new&amp;#34; , monospace ; font-size: 15px ; background-color: rgb(30 , 30 , 30)&quot;&gt;pubic (出書):boolean&lt;/span&gt;" style="shape=partialRectangle;html=1;whiteSpace=wrap;connectable=0;fillColor=none;top=0;left=0;bottom=0;right=0;align=left;spacingLeft=6;overflow=hidden;" vertex="1" parent="l_XPIXDKewQsz5GAqpIU-87">
          <mxGeometry x="48" width="192" height="30" as="geometry" />
        </mxCell>
        <mxCell id="l_XPIXDKewQsz5GAqpIU-90" style="edgeStyle=orthogonalEdgeStyle;rounded=0;orthogonalLoop=1;jettySize=auto;html=1;endArrow=diamond;endFill=1;exitX=1;exitY=0.5;exitDx=0;exitDy=0;" edge="1" parent="WIyWlLk6GJQsqaUBKTNV-1" source="l_XPIXDKewQsz5GAqpIU-60">
          <mxGeometry relative="1" as="geometry">
            <mxPoint x="250" y="708" as="targetPoint" />
            <Array as="points">
              <mxPoint x="490" y="605" />
              <mxPoint x="490" y="670" />
              <mxPoint x="250" y="670" />
            </Array>
          </mxGeometry>
        </mxCell>
        <mxCell id="l_XPIXDKewQsz5GAqpIU-92" value="&lt;p style=&quot;line-height: 120%&quot;&gt;&lt;/p&gt;&lt;table border=&quot;1&quot; width=&quot;100%&quot; style=&quot;text-align: center ; width: 100% ; height: 100% ; border-collapse: collapse&quot;&gt;&lt;tbody&gt;&lt;tr&gt;&lt;td&gt;&lt;div style=&quot;text-align: center&quot;&gt;&lt;span style=&quot;font-weight: 700&quot;&gt;&lt;br&gt;&lt;/span&gt;&lt;/div&gt;&lt;div style=&quot;text-align: center&quot;&gt;&lt;span style=&quot;font-weight: 700&quot;&gt;美字美句分享&lt;/span&gt;&lt;/div&gt;&lt;span style=&quot;font-weight: 700&quot;&gt;&lt;div style=&quot;text-align: center&quot;&gt;&lt;span&gt;#shareEverything&lt;/span&gt;&lt;/div&gt;&lt;div style=&quot;text-align: center&quot;&gt;&lt;span&gt;&lt;br&gt;&lt;/span&gt;&lt;/div&gt;&lt;/span&gt;&lt;/td&gt;&lt;td&gt;&lt;div style=&quot;text-align: center&quot;&gt;&lt;span style=&quot;font-weight: 700&quot;&gt;&lt;br&gt;&lt;/span&gt;&lt;/div&gt;&lt;div style=&quot;text-align: center&quot;&gt;&lt;span style=&quot;font-weight: 700&quot;&gt;心情隨筆&lt;/span&gt;&lt;/div&gt;&lt;span style=&quot;font-weight: 700&quot;&gt;&lt;div style=&quot;text-align: center&quot;&gt;&lt;span&gt;#diary&lt;/span&gt;&lt;/div&gt;&lt;div style=&quot;text-align: center&quot;&gt;&lt;span&gt;&lt;br&gt;&lt;/span&gt;&lt;/div&gt;&lt;/span&gt;&lt;/td&gt;&lt;td&gt;&lt;div style=&quot;text-align: center&quot;&gt;&lt;span style=&quot;font-weight: 700&quot;&gt;&lt;br&gt;&lt;/span&gt;&lt;/div&gt;&lt;div style=&quot;text-align: center&quot;&gt;&lt;span style=&quot;font-weight: 700&quot;&gt;筆記&lt;/span&gt;&lt;/div&gt;&lt;span style=&quot;font-weight: 700&quot;&gt;&lt;div style=&quot;text-align: center&quot;&gt;&lt;span&gt;#notes&lt;/span&gt;&lt;/div&gt;&lt;div style=&quot;text-align: center&quot;&gt;&lt;span&gt;&lt;br&gt;&lt;/span&gt;&lt;/div&gt;&lt;/span&gt;&lt;/td&gt;&lt;td&gt;&lt;div style=&quot;text-align: center&quot;&gt;&lt;span style=&quot;font-weight: 700&quot;&gt;&lt;br&gt;&lt;/span&gt;&lt;/div&gt;&lt;div style=&quot;text-align: center&quot;&gt;&lt;span style=&quot;font-weight: 700&quot;&gt;便利貼&lt;/span&gt;&lt;/div&gt;&lt;span style=&quot;font-weight: 700&quot;&gt;&lt;div style=&quot;text-align: center&quot;&gt;&lt;span&gt;#postIt&lt;/span&gt;&lt;/div&gt;&lt;div style=&quot;text-align: center&quot;&gt;&lt;span&gt;&lt;br&gt;&lt;/span&gt;&lt;/div&gt;&lt;/span&gt;&lt;/td&gt;&lt;td&gt;&lt;div style=&quot;text-align: center&quot;&gt;&lt;span style=&quot;font-weight: 700&quot;&gt;&lt;br&gt;&lt;/span&gt;&lt;/div&gt;&lt;div style=&quot;text-align: center&quot;&gt;&lt;span style=&quot;font-weight: 700&quot;&gt;待辦事項&lt;/span&gt;&lt;/div&gt;&lt;span style=&quot;font-weight: 700&quot;&gt;&lt;div style=&quot;text-align: center&quot;&gt;&lt;span&gt;#todo&lt;/span&gt;&lt;/div&gt;&lt;div style=&quot;text-align: center&quot;&gt;&lt;span&gt;&lt;br&gt;&lt;/span&gt;&lt;/div&gt;&lt;/span&gt;&lt;/td&gt;&lt;td&gt;&lt;div style=&quot;text-align: center&quot;&gt;&lt;span style=&quot;font-weight: 700&quot;&gt;&lt;br&gt;&lt;/span&gt;&lt;/div&gt;&lt;div style=&quot;text-align: center&quot;&gt;&lt;span style=&quot;font-weight: 700&quot;&gt;小說&lt;/span&gt;&lt;/div&gt;&lt;span style=&quot;font-weight: 700&quot;&gt;&lt;div style=&quot;text-align: center&quot;&gt;&lt;span&gt;#novel&lt;/span&gt;&lt;/div&gt;&lt;div style=&quot;text-align: center&quot;&gt;&lt;span&gt;&lt;br&gt;&lt;/span&gt;&lt;/div&gt;&lt;/span&gt;&lt;/td&gt;&lt;td&gt;&lt;div style=&quot;text-align: center&quot;&gt;&lt;span style=&quot;font-weight: 700&quot;&gt;&lt;br&gt;&lt;/span&gt;&lt;/div&gt;&lt;div style=&quot;text-align: center&quot;&gt;&lt;span style=&quot;font-weight: 700&quot;&gt;儲物清單&lt;/span&gt;&lt;/div&gt;&lt;span style=&quot;font-weight: 700&quot;&gt;&lt;div style=&quot;text-align: center&quot;&gt;&lt;span&gt;#storage&lt;/span&gt;&lt;/div&gt;&lt;div style=&quot;text-align: center&quot;&gt;&lt;span&gt;&lt;br&gt;&lt;/span&gt;&lt;/div&gt;&lt;/span&gt;&lt;/td&gt;&lt;/tr&gt;&lt;tr&gt;&lt;td style=&quot;text-align: center&quot;&gt;Value 4&lt;/td&gt;&lt;td style=&quot;text-align: center&quot;&gt;Value 5&lt;/td&gt;&lt;td style=&quot;text-align: center&quot;&gt;Value 6&lt;/td&gt;&lt;td style=&quot;text-align: center&quot;&gt;nfdlfdji&lt;/td&gt;&lt;td style=&quot;text-align: center&quot;&gt;h[t]dh[d&lt;/td&gt;&lt;td style=&quot;text-align: center&quot;&gt;&lt;br&gt;&lt;/td&gt;&lt;td style=&quot;text-align: center&quot;&gt;&lt;br&gt;&lt;/td&gt;&lt;/tr&gt;&lt;tr&gt;&lt;td style=&quot;text-align: center&quot;&gt;Value 7&lt;/td&gt;&lt;td style=&quot;text-align: center&quot;&gt;Value 8&lt;/td&gt;&lt;td style=&quot;text-align: center&quot;&gt;Value 9&lt;/td&gt;&lt;td style=&quot;text-align: center&quot;&gt;&lt;br&gt;&lt;/td&gt;&lt;td style=&quot;text-align: center&quot;&gt;&lt;br&gt;&lt;/td&gt;&lt;td style=&quot;text-align: center&quot;&gt;&lt;br&gt;&lt;/td&gt;&lt;td style=&quot;text-align: center&quot;&gt;&lt;br&gt;&lt;/td&gt;&lt;/tr&gt;&lt;tr&gt;&lt;td style=&quot;text-align: center&quot;&gt;&lt;br&gt;&lt;/td&gt;&lt;td style=&quot;text-align: center&quot;&gt;&lt;br&gt;&lt;/td&gt;&lt;td style=&quot;text-align: center&quot;&gt;&lt;br&gt;&lt;/td&gt;&lt;td style=&quot;text-align: center&quot;&gt;&lt;br&gt;&lt;/td&gt;&lt;td style=&quot;text-align: center&quot;&gt;&lt;br&gt;&lt;/td&gt;&lt;td style=&quot;text-align: center&quot;&gt;&lt;br&gt;&lt;/td&gt;&lt;td style=&quot;text-align: center&quot;&gt;&lt;br&gt;&lt;/td&gt;&lt;/tr&gt;&lt;tr&gt;&lt;td style=&quot;text-align: center&quot;&gt;&lt;br&gt;&lt;/td&gt;&lt;td style=&quot;text-align: center&quot;&gt;&lt;br&gt;&lt;/td&gt;&lt;td style=&quot;text-align: center&quot;&gt;&lt;br&gt;&lt;/td&gt;&lt;td style=&quot;text-align: center&quot;&gt;&lt;br&gt;&lt;/td&gt;&lt;td style=&quot;text-align: center&quot;&gt;&lt;br&gt;&lt;/td&gt;&lt;td style=&quot;text-align: center&quot;&gt;&lt;br&gt;&lt;/td&gt;&lt;td style=&quot;text-align: center&quot;&gt;&lt;br&gt;&lt;/td&gt;&lt;/tr&gt;&lt;tr&gt;&lt;td style=&quot;text-align: center&quot;&gt;&lt;br&gt;&lt;/td&gt;&lt;td style=&quot;text-align: center&quot;&gt;&lt;br&gt;&lt;/td&gt;&lt;td style=&quot;text-align: center&quot;&gt;&lt;br&gt;&lt;/td&gt;&lt;td style=&quot;text-align: center&quot;&gt;&lt;br&gt;&lt;/td&gt;&lt;td style=&quot;text-align: center&quot;&gt;&lt;br&gt;&lt;/td&gt;&lt;td style=&quot;text-align: center&quot;&gt;&lt;br&gt;&lt;/td&gt;&lt;td style=&quot;text-align: center&quot;&gt;&lt;br&gt;&lt;/td&gt;&lt;/tr&gt;&lt;/tbody&gt;&lt;/table&gt;&lt;p&gt;&lt;/p&gt;" style="text;html=1;strokeColor=none;fillColor=none;overflow=fill;strokeWidth=2;dashed=1;dashPattern=1 2;" vertex="1" parent="WIyWlLk6GJQsqaUBKTNV-1">
          <mxGeometry x="350" y="690" width="420" height="240" as="geometry" />
        </mxCell>
        <mxCell id="l_XPIXDKewQsz5GAqpIU-93" value="美字美句分享 #shareEverything&#xa;心情隨筆 #diary&#xa;筆記 #notes&#xa;便利貼 #postIt&#xa;待辦事項 #todo&#xa;小說 #novel&#xa;儲物清單 #storage" style="swimlane;dashed=1;dashPattern=1 2;strokeWidth=5;startSize=160;" vertex="1" parent="WIyWlLk6GJQsqaUBKTNV-1">
          <mxGeometry x="520" y="480" width="200" height="200" as="geometry" />
        </mxCell>
      </root>
    </mxGraphModel>
  </diagram>
</mxfile>
